<svg width="22" height="23" viewBox="0 0 22 23" fill="curentColor" xmlns="http://www.w3.org/2000/svg">
<path d="M11.0049 5.39551C7.07797 5.39551 4.01688 7.85341 0.262695 11.8384C3.49725 15.2457 6.21146 18.286 11.0049 18.286C15.7983 18.286 19.3214 14.4372 21.7471 11.9104C19.264 8.95036 15.7406 5.39551 11.0049 5.39551ZM11.0049 17.5698C6.7496 17.5698 4.18089 14.9306 1.2502 11.8391C4.7372 8.20309 7.50985 6.11167 11.0049 6.11167C15.1426 6.11167 18.3765 9.0955 20.7826 11.8817C18.4163 14.349 15.2126 17.5698 11.0049 17.5698Z" />
<path d="M11.0049 7.54425C8.63546 7.54425 6.70801 9.4717 6.70801 11.8408C6.70801 14.2099 8.63546 16.1373 11.0049 16.1373C13.3743 16.1373 15.3018 14.2099 15.3018 11.8408C15.3018 9.4717 13.3744 7.54425 11.0049 7.54425ZM11.0049 15.4212C9.03055 15.4212 7.42417 13.8151 7.42417 11.8408C7.42417 9.86654 9.0306 8.26041 11.0049 8.26041C12.9792 8.26041 14.5856 9.8665 14.5856 11.8408C14.5856 13.8151 12.9792 15.4212 11.0049 15.4212Z" />
<path d="M11.005 9.33435C9.62307 9.33435 8.49854 10.4589 8.49854 11.8408C8.49854 13.2228 9.62311 14.3473 11.005 14.3473C12.387 14.3473 13.5115 13.2227 13.5115 11.8408C13.5116 10.4589 12.387 9.33435 11.005 9.33435ZM11.005 13.6312C10.0179 13.6312 9.21465 12.828 9.21465 11.8408C9.21465 10.8537 10.0179 10.0505 11.005 10.0505C11.9922 10.0505 12.7954 10.8536 12.7954 11.8408C12.7954 12.828 11.9922 13.6312 11.005 13.6312Z" />
</svg>
