<svg width="24" height="24" viewBox="0 0 24 24" fill="currentColor" xmlns="http://www.w3.org/2000/svg">
<path d="M13.7574 4C13.8327 3.99987 13.9073 4.01457 13.9768 4.04326C14.0464 4.07196 14.1096 4.11408 14.1629 4.16723L19.8327 9.83706C19.9401 9.94446 20.0004 10.0901 20.0004 10.242C20.0004 10.3938 19.9401 10.5395 19.8327 10.6469C19.2829 11.1967 18.6049 11.3204 18.1112 11.3204C17.9084 11.3204 17.7275 11.2998 17.5843 11.2757L13.9945 14.8655C14.089 15.2462 14.1504 15.6344 14.1778 16.0258C14.2305 16.8298 14.1412 17.9581 13.3531 18.7461C13.2457 18.8535 13.1001 18.9138 12.9482 18.9138C12.7963 18.9138 12.6507 18.8535 12.5433 18.7461L9.30291 15.5069L5.65818 19.1516C5.43482 19.375 4.26191 20.1848 4.03856 19.9614C3.8152 19.7381 4.62501 18.564 4.84837 18.3418L8.49309 14.6971L5.25385 11.4567C5.14648 11.3493 5.08617 11.2036 5.08617 11.0518C5.08617 10.8999 5.14648 10.7543 5.25385 10.6469C6.0419 9.85882 7.17013 9.76833 7.97422 9.82217C8.36556 9.84959 8.75379 9.91091 9.13453 10.0054L12.7243 6.41684C12.6943 6.24241 12.679 6.06578 12.6785 5.8888C12.6785 5.39627 12.8022 4.71818 13.3531 4.16723C13.4604 4.06017 13.6058 4.00003 13.7574 4Z"/>
</svg>
