<svg width="21" height="21" viewBox="0 0 21 21" fill="currentColor" xmlns="http://www.w3.org/2000/svg">
<mask id="path-1-inside-1_1083_2098">
<path d="M16.1595 5.94526C16.0868 5.87342 15.9887 5.83313 15.8865 5.83313C15.7843 5.83313 15.6862 5.87342 15.6135 5.94526L8.39997 14.0649L5.34448 11.6174C5.3049 11.5771 5.25722 11.5456 5.20457 11.5251C5.15192 11.5045 5.09551 11.4954 5.03908 11.4983C4.98265 11.5013 4.92748 11.5161 4.87722 11.542C4.82697 11.5678 4.78277 11.604 4.74756 11.6483C4.71235 11.6925 4.68694 11.7437 4.67299 11.7984C4.65904 11.8532 4.65689 11.9103 4.66666 11.966C4.67644 12.0217 4.69793 12.0747 4.7297 12.1214C4.76147 12.1682 4.80281 12.2076 4.85098 12.2372L8.24247 14.9157C8.31644 14.9851 8.41405 15.0238 8.51547 15.0238C8.61689 15.0238 8.71451 14.9851 8.78847 14.9157L16.2015 6.51248C16.2363 6.47265 16.2629 6.42629 16.2797 6.37609C16.2965 6.32589 16.3031 6.27286 16.2992 6.22007C16.2953 6.16729 16.2809 6.11581 16.2569 6.06863C16.2329 6.02145 16.1998 5.97951 16.1595 5.94526Z"/>
</mask>
<path d="M16.1595 5.94526C16.0868 5.87342 15.9887 5.83313 15.8865 5.83313C15.7843 5.83313 15.6862 5.87342 15.6135 5.94526L8.39997 14.0649L5.34448 11.6174C5.3049 11.5771 5.25722 11.5456 5.20457 11.5251C5.15192 11.5045 5.09551 11.4954 5.03908 11.4983C4.98265 11.5013 4.92748 11.5161 4.87722 11.542C4.82697 11.5678 4.78277 11.604 4.74756 11.6483C4.71235 11.6925 4.68694 11.7437 4.67299 11.7984C4.65904 11.8532 4.65689 11.9103 4.66666 11.966C4.67644 12.0217 4.69793 12.0747 4.7297 12.1214C4.76147 12.1682 4.80281 12.2076 4.85098 12.2372L8.24247 14.9157C8.31644 14.9851 8.41405 15.0238 8.51547 15.0238C8.61689 15.0238 8.71451 14.9851 8.78847 14.9157L16.2015 6.51248C16.2363 6.47265 16.2629 6.42629 16.2797 6.37609C16.2965 6.32589 16.3031 6.27286 16.2992 6.22007C16.2953 6.16729 16.2809 6.11581 16.2569 6.06863C16.2329 6.02145 16.1998 5.97951 16.1595 5.94526Z" />
<path d="M16.1595 5.94526L10.5368 11.6361L10.7513 11.848L10.9811 12.0432L16.1595 5.94526ZM15.6135 5.94526L9.99076 0.254473L9.80562 0.437399L9.63276 0.631972L15.6135 5.94526ZM8.39997 14.0649L3.39863 20.3088L9.33182 25.0613L14.3807 19.3782L8.39997 14.0649ZM5.34448 11.6174L-0.367491 17.2186L-0.0314608 17.5613L0.343127 17.8614L5.34448 11.6174ZM4.85098 12.2372L9.8093 5.95904L9.43859 5.66626L9.03599 5.41914L4.85098 12.2372ZM8.24247 14.9157L13.7173 9.08248L13.4685 8.84901L13.2008 8.63757L8.24247 14.9157ZM8.51547 15.0238V23.0238V15.0238ZM8.78847 14.9157L14.2633 20.7489L14.5383 20.4908L14.7877 20.208L8.78847 14.9157ZM16.2015 6.51248L22.2007 11.8048L22.2113 11.7929L22.2218 11.7809L16.2015 6.51248ZM21.7822 0.254473C20.2124 -1.29659 18.0942 -2.16687 15.8865 -2.16687V13.8331C13.8832 13.8331 11.9612 13.0434 10.5368 11.6361L21.7822 0.254473ZM15.8865 -2.16687C13.6788 -2.16687 11.5606 -1.29659 9.99076 0.254473L21.2362 11.6361C19.8118 13.0434 17.8898 13.8331 15.8865 13.8331V-2.16687ZM9.63276 0.631972L2.41926 8.75159L14.3807 19.3782L21.5942 11.2586L9.63276 0.631972ZM13.4013 7.82096L10.3458 5.37352L0.343127 17.8614L3.39863 20.3088L13.4013 7.82096ZM11.0564 6.01624C10.2236 5.16694 9.21977 4.50411 8.11126 4.0718L2.29788 18.9783C1.29466 18.5871 0.386194 17.9872 -0.367491 17.2186L11.0564 6.01624ZM8.11126 4.0718C7.00273 3.63949 5.81495 3.44762 4.62659 3.50898L5.45157 19.4877C4.37607 19.5432 3.30111 19.3696 2.29788 18.9783L8.11126 4.0718ZM4.62659 3.50898C3.43828 3.57033 2.2766 3.88348 1.2185 4.42763L8.53594 18.6563C7.57835 19.1488 6.52702 19.4322 5.45157 19.4877L4.62659 3.50898ZM1.2185 4.42763C0.160417 4.97178 -0.769771 5.73441 -1.51065 6.66481L11.0058 16.6317C10.3353 17.4737 9.49352 18.1638 8.53594 18.6563L1.2185 4.42763ZM-1.51065 6.66481C-2.25154 7.59522 -2.78631 8.67228 -3.0797 9.82465L12.4257 13.7722C12.1602 14.8151 11.6762 15.7897 11.0058 16.6317L-1.51065 6.66481ZM-3.0797 9.82465C-3.37308 10.977 -3.41843 12.1785 -3.21278 13.3496L12.5461 10.5824C12.7322 11.6422 12.6912 12.7295 12.4257 13.7722L-3.0797 9.82465ZM-3.21278 13.3496C-3.00713 14.5208 -2.55512 15.6351 -1.88654 16.6187L11.3459 7.62414C11.951 8.51424 12.36 9.52259 12.5461 10.5824L-3.21278 13.3496ZM-1.88654 16.6187C-1.21792 17.6023 -0.347934 18.4329 0.665961 19.0552L9.03599 5.41914C9.95356 5.98235 10.7409 6.73399 11.3459 7.62414L-1.88654 16.6187ZM-0.107353 18.5153L3.28415 21.1938L13.2008 8.63757L9.8093 5.95904L-0.107353 18.5153ZM2.76767 20.7489C4.32448 22.2101 6.37964 23.0238 8.51547 23.0238V7.02376C10.4485 7.02376 12.3084 7.76017 13.7173 9.08248L2.76767 20.7489ZM8.51547 23.0238C10.6513 23.0238 12.7065 22.2101 14.2633 20.7489L3.31367 9.08248C4.72255 7.76016 6.58249 7.02376 8.51547 7.02376V23.0238ZM14.7877 20.208L22.2007 11.8048L10.2022 1.22015L2.7892 9.62338L14.7877 20.208ZM22.2218 11.7809C22.9552 10.9427 23.5145 9.96723 23.8674 8.91125L8.69199 3.84094C9.01127 2.88536 9.5174 2.00259 10.1812 1.2441L22.2218 11.7809ZM23.8674 8.91125C24.2202 7.85522 24.3595 6.73962 24.2773 5.62933L8.32101 6.81082C8.24662 5.8061 8.3727 4.79657 8.69199 3.84094L23.8674 8.91125ZM24.2773 5.62933C24.1951 4.51908 23.893 3.43612 23.3884 2.44346L9.12543 9.6938C8.66879 8.7955 8.3954 7.8155 8.32101 6.81082L24.2773 5.62933ZM23.3884 2.44346C22.8838 1.45088 22.1869 0.568346 21.3378 -0.152653L10.9811 12.0432C10.2128 11.3907 9.58202 10.592 9.12543 9.6938L23.3884 2.44346Z"  mask="url(#path-1-inside-1_1083_2098)"/>
</svg>
