<svg width="60" height="60" viewBox="0 0 60 60" fill="currentColor" xmlns="http://www.w3.org/2000/svg">
<path d="M21.3516 31.8516V34.2727H40.5234V31.8516C40.521 29.6935 39.6626 27.6246 38.1366 26.0986C36.6106 24.5726 34.5417 23.7142 32.3836 23.7117H29.4937C27.3353 23.7136 25.2657 24.5717 23.7392 26.0977C22.2128 27.6238 21.354 29.6931 21.3516 31.8516Z" />
<path d="M31.4907 22.7719C32.8364 22.6302 34.0765 21.9775 34.9551 20.9485C35.8338 19.9194 36.2841 18.5924 36.2132 17.2412C36.1422 15.8899 35.5555 14.6173 34.5739 13.6859C33.5923 12.7545 32.2907 12.2353 30.9376 12.2353C29.5845 12.2353 28.2829 12.7545 27.3013 13.6859C26.3197 14.6173 25.733 15.8899 25.6621 17.2412C25.5911 18.5924 26.0414 19.9194 26.9201 20.9485C27.7987 21.9775 29.0388 22.6302 30.3845 22.7719H31.4907Z" />
<path d="M32.3813 23.7094H30.272C32.4308 23.7112 34.5008 24.5697 36.0273 26.0962C37.5539 27.6228 38.4123 29.6927 38.4142 31.8516V34.2727H40.5235V31.8516C40.5217 29.6927 39.6632 27.6228 38.1367 26.0962C36.6101 24.5697 34.5402 23.7112 32.3813 23.7094Z" />
<path d="M30.9375 12.2391C30.5833 12.2388 30.23 12.2741 29.8828 12.3445C31.0754 12.5879 32.1473 13.2358 32.9171 14.1786C33.6869 15.1214 34.1074 16.3012 34.1074 17.5184C34.1074 18.7355 33.6869 19.9153 32.9171 20.8581C32.1473 21.8009 31.0754 22.4488 29.8828 22.6922C30.0484 22.725 30.2164 22.7508 30.3867 22.7695H31.493C32.8356 22.6247 34.0718 21.971 34.9472 20.9427C35.8227 19.9145 36.2709 18.5899 36.1998 17.2414C36.1286 15.8928 35.5435 14.6228 34.5648 13.6923C33.586 12.7619 32.2879 12.2419 30.9375 12.2391Z" />
<path d="M57.656 20.6648H52.9685C52.8131 20.6648 52.6641 20.7266 52.5542 20.8364C52.4443 20.9463 52.3826 21.0954 52.3826 21.2508C52.3826 21.4062 52.4443 21.5552 52.5542 21.6651C52.6641 21.775 52.8131 21.8367 52.9685 21.8367H56.2498L43.9334 34.1531H40.6521V31.8515C40.6492 29.7524 39.9294 27.7173 38.6119 26.0831C37.2945 24.4489 35.4583 23.3137 33.4076 22.8656C34.5629 22.1301 35.4484 21.0396 35.9311 19.7579C36.4139 18.4762 36.4678 17.0725 36.0847 15.7576C35.7017 14.4427 34.9024 13.2875 33.8069 12.4656C32.7113 11.6437 31.3787 11.1993 30.0091 11.1993C28.6396 11.1993 27.3069 11.6437 26.2114 12.4656C25.1159 13.2875 24.3166 14.4427 23.9335 15.7576C23.5505 17.0725 23.6044 18.4762 24.0871 19.7579C24.5699 21.0396 25.4554 22.1301 26.6107 22.8656C24.5587 23.3123 22.7209 24.4469 21.402 26.0812C20.0832 27.7155 19.3624 29.7515 19.3591 31.8515V34.1555H15.8318C15.7548 34.1553 15.6785 34.1704 15.6073 34.1997C15.5362 34.2291 15.4715 34.2722 15.417 34.3265L1.92867 47.8125C1.87419 47.867 1.83098 47.9316 1.80149 48.0028C1.77201 48.074 1.75684 48.1503 1.75684 48.2273C1.75684 48.3044 1.77201 48.3807 1.80149 48.4518C1.83098 48.523 1.87419 48.5877 1.92867 48.6422C1.98315 48.6966 2.04782 48.7399 2.119 48.7693C2.19018 48.7988 2.26647 48.814 2.34351 48.814C2.42056 48.814 2.49685 48.7988 2.56803 48.7693C2.6392 48.7399 2.70388 48.6966 2.75836 48.6422L16.0755 35.325H44.1677C44.2447 35.3251 44.321 35.3101 44.3922 35.2807C44.4634 35.2514 44.5281 35.2083 44.5826 35.1539L57.0701 22.6664V25.9476C57.0701 26.103 57.1318 26.2521 57.2417 26.362C57.3516 26.4718 57.5006 26.5336 57.656 26.5336C57.8114 26.5336 57.9604 26.4718 58.0703 26.362C58.1802 26.2521 58.242 26.103 58.242 25.9476V21.2601C58.2432 21.1824 58.229 21.1052 58.2001 21.033C58.1712 20.9609 58.1282 20.8952 58.0737 20.8397C58.0191 20.7843 57.9541 20.7403 57.8824 20.7103C57.8107 20.6803 57.7338 20.6648 57.656 20.6648ZM24.8435 17.5219C24.8452 16.5261 25.1352 15.5522 25.6785 14.7177C26.2217 13.8832 26.995 13.2238 27.9048 12.8193C28.8147 12.4147 29.8222 12.2823 30.8057 12.4379C31.7892 12.5935 32.7066 13.0306 33.4471 13.6964C34.1876 14.3621 34.7195 15.228 34.9785 16.1895C35.2375 17.1509 35.2126 18.1668 34.9068 19.1144C34.601 20.062 34.0273 20.9008 33.2551 21.5295C32.4829 22.1581 31.5452 22.5497 30.5552 22.657H29.4607C28.1935 22.5207 27.0213 21.9211 26.1691 20.9733C25.3169 20.0255 24.8449 18.7964 24.8435 17.5219ZM39.4755 34.1625H20.531V31.8515C20.5335 29.7246 21.3795 27.6854 22.8835 26.1814C24.3875 24.6774 26.4267 23.8314 28.5537 23.8289H31.4435C33.5709 23.8308 35.6107 24.6765 37.1152 26.1806C38.6197 27.6847 39.466 29.7242 39.4685 31.8515L39.4755 34.1625Z" />
<path d="M38.6719 9.14062H37.7344V8.20312C37.7344 8.14096 37.7097 8.08135 37.6657 8.0374C37.6218 7.99344 37.5622 7.96875 37.5 7.96875C37.4378 7.96875 37.3782 7.99344 37.3343 8.0374C37.2903 8.08135 37.2656 8.14096 37.2656 8.20312V9.14062H36.3281C36.266 9.14062 36.2064 9.16532 36.1624 9.20927C36.1184 9.25323 36.0938 9.31284 36.0938 9.375C36.0938 9.43716 36.1184 9.49677 36.1624 9.54073C36.2064 9.58468 36.266 9.60938 36.3281 9.60938H37.2656V10.5469C37.2656 10.609 37.2903 10.6686 37.3343 10.7126C37.3782 10.7566 37.4378 10.7812 37.5 10.7812C37.5622 10.7812 37.6218 10.7566 37.6657 10.7126C37.7097 10.6686 37.7344 10.609 37.7344 10.5469V9.60938H38.6719C38.734 9.60938 38.7936 9.58468 38.8376 9.54073C38.8816 9.49677 38.9062 9.43716 38.9062 9.375C38.9062 9.31284 38.8816 9.25323 38.8376 9.20927C38.7936 9.16532 38.734 9.14062 38.6719 9.14062Z" />
<path d="M27.3447 41.2242H26.4072V40.2867C26.4072 40.2246 26.3825 40.1649 26.3386 40.121C26.2946 40.077 26.235 40.0523 26.1729 40.0523C26.1107 40.0523 26.0511 40.077 26.0071 40.121C25.9632 40.1649 25.9385 40.2246 25.9385 40.2867V41.2242H25.001C24.9388 41.2242 24.8792 41.2489 24.8352 41.2929C24.7913 41.3368 24.7666 41.3964 24.7666 41.4586C24.7666 41.5207 24.7913 41.5804 24.8352 41.6243C24.8792 41.6683 24.9388 41.693 25.001 41.693H25.9385V42.6305C25.9385 42.6926 25.9632 42.7522 26.0071 42.7962C26.0511 42.8401 26.1107 42.8648 26.1729 42.8648C26.235 42.8648 26.2946 42.8401 26.3386 42.7962C26.3825 42.7522 26.4072 42.6926 26.4072 42.6305V41.693H27.3447C27.4069 41.693 27.4665 41.6683 27.5105 41.6243C27.5544 41.5804 27.5791 41.5207 27.5791 41.4586C27.5791 41.3964 27.5544 41.3368 27.5105 41.2929C27.4665 41.2489 27.4069 41.2242 27.3447 41.2242Z" />
<path d="M49.4531 39.818H48.5156V38.8805C48.5156 38.8183 48.4909 38.7587 48.447 38.7147C48.403 38.6708 48.3434 38.6461 48.2812 38.6461C48.2191 38.6461 48.1595 38.6708 48.1155 38.7147C48.0716 38.7587 48.0469 38.8183 48.0469 38.8805V39.818H47.1094C47.0472 39.818 46.9876 39.8427 46.9436 39.8866C46.8997 39.9306 46.875 39.9902 46.875 40.0523C46.875 40.1145 46.8997 40.1741 46.9436 40.2181C46.9876 40.262 47.0472 40.2867 47.1094 40.2867H48.0469V41.2242C48.0469 41.2864 48.0716 41.346 48.1155 41.3899C48.1595 41.4339 48.2191 41.4586 48.2812 41.4586C48.3434 41.4586 48.403 41.4339 48.447 41.3899C48.4909 41.346 48.5156 41.2864 48.5156 41.2242V40.2867H49.4531C49.5153 40.2867 49.5749 40.262 49.6189 40.2181C49.6628 40.1741 49.6875 40.1145 49.6875 40.0523C49.6875 39.9902 49.6628 39.9306 49.6189 39.8866C49.5749 39.8427 49.5153 39.818 49.4531 39.818Z" />
<path d="M17.0322 17.8125H16.0947V16.875C16.0947 16.8128 16.07 16.7532 16.0261 16.7093C15.9821 16.6653 15.9225 16.6406 15.8604 16.6406C15.7982 16.6406 15.7386 16.6653 15.6946 16.7093C15.6507 16.7532 15.626 16.8128 15.626 16.875V17.8125H14.6885C14.6263 17.8125 14.5667 17.8372 14.5227 17.8811C14.4788 17.9251 14.4541 17.9847 14.4541 18.0469C14.4541 18.109 14.4788 18.1686 14.5227 18.2126C14.5667 18.2566 14.6263 18.2812 14.6885 18.2812H15.626V19.2188C15.626 19.2809 15.6507 19.3405 15.6946 19.3845C15.7386 19.4284 15.7982 19.4531 15.8604 19.4531C15.9225 19.4531 15.9821 19.4284 16.0261 19.3845C16.07 19.3405 16.0947 19.2809 16.0947 19.2188V18.2812H17.0322C17.0944 18.2812 17.154 18.2566 17.198 18.2126C17.2419 18.1686 17.2666 18.109 17.2666 18.0469C17.2666 17.9847 17.2419 17.9251 17.198 17.8811C17.154 17.8372 17.0944 17.8125 17.0322 17.8125Z" />
<path d="M48.2812 24.6352C48.0031 24.6352 47.7312 24.5527 47.5 24.3982C47.2687 24.2436 47.0885 24.024 46.982 23.7671C46.8756 23.5101 46.8478 23.2274 46.902 22.9546C46.9563 22.6818 47.0902 22.4312 47.2869 22.2345C47.4835 22.0379 47.7341 21.9039 48.0069 21.8497C48.2797 21.7954 48.5624 21.8233 48.8194 21.9297C49.0764 22.0361 49.296 22.2164 49.4505 22.4476C49.605 22.6789 49.6875 22.9508 49.6875 23.2289C49.6875 23.6019 49.5393 23.9596 49.2756 24.2233C49.0119 24.487 48.6542 24.6352 48.2812 24.6352ZM48.2812 22.2914C48.0958 22.2914 47.9146 22.3464 47.7604 22.4494C47.6062 22.5524 47.4861 22.6988 47.4151 22.8701C47.3442 23.0415 47.3256 23.23 47.3618 23.4118C47.3979 23.5937 47.4872 23.7607 47.6183 23.8918C47.7494 24.0229 47.9165 24.1122 48.0984 24.1484C48.2802 24.1846 48.4687 24.166 48.64 24.0951C48.8113 24.0241 48.9577 23.9039 49.0608 23.7498C49.1638 23.5956 49.2187 23.4143 49.2187 23.2289C49.2187 22.9803 49.12 22.7418 48.9442 22.566C48.7683 22.3902 48.5299 22.2914 48.2812 22.2914Z" />
<path d="M12.4219 32.1094H11.8148L12.2438 31.6805C12.2821 31.6356 12.3022 31.578 12.2999 31.519C12.2977 31.46 12.2732 31.404 12.2315 31.3623C12.1897 31.3205 12.1338 31.2961 12.0748 31.2938C12.0158 31.2915 11.9581 31.3116 11.9133 31.35L11.4844 31.7789V31.1719C11.4844 31.1097 11.4597 31.0501 11.4157 31.0061C11.3718 30.9622 11.3122 30.9375 11.25 30.9375C11.1878 30.9375 11.1282 30.9622 11.0843 31.0061C11.0403 31.0501 11.0156 31.1097 11.0156 31.1719V31.7789L10.5867 31.35C10.5419 31.3116 10.4842 31.2915 10.4252 31.2938C10.3662 31.2961 10.3103 31.3205 10.2685 31.3623C10.2268 31.404 10.2023 31.46 10.2001 31.519C10.1978 31.578 10.2179 31.6356 10.2562 31.6805L10.6852 32.1094H10.0781C10.016 32.1094 9.95635 32.1341 9.9124 32.178C9.86844 32.222 9.84375 32.2816 9.84375 32.3438C9.84375 32.4059 9.86844 32.4655 9.9124 32.5095C9.95635 32.5534 10.016 32.5781 10.0781 32.5781H10.6852L10.2562 33.007C10.2179 33.0519 10.1978 33.1095 10.2001 33.1685C10.2023 33.2275 10.2268 33.2835 10.2685 33.3252C10.3103 33.367 10.3662 33.3914 10.4252 33.3937C10.4842 33.396 10.5419 33.3759 10.5867 33.3375L11.0156 32.9086V33.5156C11.0156 33.5778 11.0403 33.6374 11.0843 33.6814C11.1282 33.7253 11.1878 33.75 11.25 33.75C11.3122 33.75 11.3718 33.7253 11.4157 33.6814C11.4597 33.6374 11.4844 33.5778 11.4844 33.5156V32.9086L11.9133 33.3375C11.9581 33.3759 12.0158 33.396 12.0748 33.3937C12.1338 33.3914 12.1897 33.367 12.2315 33.3252C12.2732 33.2835 12.2977 33.2275 12.2999 33.1685C12.3022 33.1095 12.2821 33.0519 12.2438 33.007L11.8148 32.5781H12.4219C12.484 32.5781 12.5436 32.5534 12.5876 32.5095C12.6316 32.4655 12.6562 32.4059 12.6562 32.3438C12.6562 32.2816 12.6316 32.222 12.5876 32.178C12.5436 32.1341 12.484 32.1094 12.4219 32.1094Z" />
</svg>
